<svg width="87" height="87" viewBox="0 0 87 87" fill="none" xmlns="http://www.w3.org/2000/svg">
<rect x="0.476562" y="0.822266" width="86" height="86" rx="4" fill="#E5EEF0"/>
<path d="M39.4264 25.4889C36.4032 23.7064 32.1906 21.4257 29.6438 19.0176C27.6503 20.463 28.3596 22.5183 26.9648 23.8607C28.4561 24.3291 30.2472 24.1211 31.7588 24.3316C34.1385 24.6629 36.5344 26.0834 38.8169 26.4841L39.4264 25.4889Z" fill="#301B0A"/>
<path d="M38.2077 25.1227C34.7273 25.1227 29.9747 25.2989 26.6084 24.5117C25.5696 26.7885 27.171 28.2103 26.6031 30.0909C28.1229 29.7337 29.579 28.6357 30.9929 28.0445C33.2188 27.1134 35.9809 27.1202 38.1557 26.2994L38.2077 25.1227Z" fill="#442810"/>
<path d="M61.4584 53.9623C60.5581 52.5006 57.9571 44.3491 57.2568 38.3396C56.5564 32.3302 55.7562 30.7059 52.2548 29.2441C48.7533 27.7824 45.5521 26.4018 45.5521 26.4018V23.8843C49.9538 21.9353 54.9963 16.4716 54.9963 16.4716L52.7422 14.0619C52.3201 13.6106 51.6228 13.388 50.9351 13.4852C48.6602 13.8063 46.3198 13.5985 44.1843 12.8854L42.5583 12.3425C41.7849 12.0844 40.8941 12.275 40.3784 12.8094L39.406 13.8165C38.8748 14.3668 37.8439 14.3548 37.3322 13.7923L36.6745 13.0694C36.264 12.6182 35.4963 12.4973 34.908 12.7913C33.8755 13.307 32.7412 13.6744 31.5547 13.8771L30.0424 14.1356C29.7228 14.1902 29.439 14.3384 29.2455 14.5521L27.5048 16.4718C27.5048 16.4718 32.5472 21.9354 36.9491 23.8844V26.402C36.9491 26.402 33.7477 27.7825 30.2464 29.2442C26.745 30.706 25.9446 32.3303 25.2444 38.3398C24.5441 44.3492 21.9431 52.5007 21.0428 53.9625C20.1424 55.4242 19.7422 56.3175 19.7422 56.3175C20.5063 57.7491 22.3733 58.5737 24.269 58.3173L30.6466 57.4545L34.1209 57.2683C38.8689 57.0138 43.6324 57.0138 48.3803 57.2683L51.8548 57.4545L58.2321 58.3173C60.1279 58.5737 61.9949 57.7491 62.7591 56.3175C62.7591 56.3175 62.3588 55.4241 61.4584 53.9623Z" fill="#C6B087"/>
<path opacity="0.5" d="M40.189 28.1915L38.6018 31.9818C38.1304 33.1076 37.0345 33.9999 35.6284 34.4027C33.8078 34.9242 31.9078 33.7998 32.0183 32.2661C32.0677 31.5794 32.5295 30.9535 33.26 30.5833L39.0608 27.643C39.1325 27.6067 39.2128 27.5823 39.2966 27.5715L39.4957 27.5458C39.959 27.4858 40.3369 27.8379 40.189 28.1915Z" fill="#B29057"/>
<path opacity="0.5" d="M43.8549 28.1285L45.8763 32.0636C46.1105 32.5197 46.6694 32.8178 47.2901 32.8178C48.3818 32.8178 49.1209 31.9346 48.6971 31.1359C48.4755 30.7182 48.1522 30.3395 47.7458 30.0212L44.7329 27.6625C44.632 27.5835 44.496 27.5391 44.3542 27.5391C43.9711 27.5391 43.7103 27.8471 43.8549 28.1285Z" fill="#B29057"/>
<g opacity="0.5">
<path opacity="0.5" d="M39.0775 18.4327C39.4029 19.6828 39.7809 21.1272 40.1035 22.3568C40.2048 22.7433 40.9192 22.6919 40.9317 22.2974L41.1724 14.7393C41.1805 14.4821 40.771 14.3653 40.5709 14.5678C40.5514 14.5875 40.5304 14.607 40.5081 14.6262C39.3026 15.6595 38.7185 17.0534 39.0775 18.4327Z" fill="#B29057"/>
<path opacity="0.5" d="M29.9099 15.5929C29.5965 15.931 29.6176 16.3955 29.9618 16.7142C31.9795 18.5842 34.9441 21.2467 37.317 23.0283C37.7648 23.3646 38.4583 22.9369 38.1604 22.5085L33.4229 15.695C33.0771 15.1978 32.3609 14.9483 31.6608 15.0659C31.6569 15.0666 31.6529 15.0673 31.6489 15.0679L30.5915 15.2447C30.318 15.2905 30.0755 15.4144 29.9099 15.5929Z" fill="#B29057"/>
</g>
<path d="M36.9914 23.1387H45.5098C45.9548 23.1387 46.3157 23.5664 46.3157 24.0939C46.3157 24.6215 45.9548 25.0491 45.5098 25.0491H36.9914C36.5464 25.0491 36.1855 24.6215 36.1855 24.0939C36.1855 23.5662 36.5462 23.1387 36.9914 23.1387Z" fill="#442810"/>
<path d="M36.9914 25.0469H45.5098C45.9548 25.0469 46.3157 25.4746 46.3157 26.0021C46.3157 26.5297 45.9548 26.9573 45.5098 26.9573H36.9914C36.5464 26.9573 36.1855 26.5297 36.1855 26.0021C36.1855 25.4744 36.5462 25.0469 36.9914 25.0469Z" fill="#513218"/>
<path opacity="0.5" d="M41.2512 54.041C35.1929 54.041 28.3705 56.2182 25.0547 57.4247L29.0286 56.8991L33.0473 56.6885C35.7663 56.546 38.5265 56.4738 41.2513 56.4738C43.9762 56.4738 46.7363 56.546 49.4553 56.6885L53.4742 56.8991L57.4481 57.4247C54.1319 56.2181 47.3093 54.041 41.2512 54.041Z" fill="#B29057"/>
<path d="M58.2664 37.7699C55.653 36.229 52.0115 34.2574 49.8099 32.1758C48.0867 33.4253 48.6998 35.2019 47.4941 36.3624C48.7833 36.7673 50.3315 36.5875 51.6383 36.7695C53.6953 37.0558 55.7665 38.2838 57.7396 38.6302L58.2664 37.7699Z" fill="#3E2713"/>
<path d="M57.2126 37.4539C54.2039 37.4539 50.0956 37.6063 47.1857 36.9258C46.2877 38.8939 47.672 40.1229 47.1811 41.7486C48.4948 41.4399 49.7536 40.4908 50.9758 39.9796C52.9 39.1748 55.2877 39.1807 57.1676 38.4711L57.2126 37.4539Z" fill="#492E18"/>
<path d="M77.3113 62.3831C76.533 61.1195 74.2846 54.073 73.6792 48.8782C73.0738 43.6834 72.382 42.2793 69.3553 41.0156C66.3285 39.752 63.5612 38.5586 63.5612 38.5586V36.3824C67.3662 34.6976 71.7251 29.9746 71.7251 29.9746L69.7766 27.8915C69.4117 27.5014 68.8089 27.309 68.2144 27.393C66.2479 27.6706 64.2248 27.4909 62.3788 26.8745L60.9732 26.4052C60.3046 26.182 59.5346 26.3468 59.0888 26.8088L58.2482 27.6793C57.789 28.1551 56.8978 28.1446 56.4555 27.6585L55.887 27.0335C55.5322 26.6435 54.8685 26.539 54.3599 26.7931C53.4675 27.239 52.4869 27.5565 51.4612 27.7318L50.154 27.9552C49.8777 28.0024 49.6324 28.1305 49.465 28.3152L47.9603 29.9747C47.9603 29.9747 52.3192 34.6977 56.1243 36.3825V38.5588C56.1243 38.5588 53.3569 39.7521 50.3302 41.0158C47.3035 42.2794 46.6116 43.6835 46.0064 48.8783C45.401 54.0731 43.1526 61.1196 42.3743 62.3832C41.596 63.6468 41.25 64.419 41.25 64.419C41.9105 65.6565 43.5245 66.3694 45.1632 66.1477L50.6762 65.4019L53.6795 65.2409C57.7839 65.0209 61.9017 65.0209 66.006 65.2409L69.0095 65.4019L74.5223 66.1477C76.1611 66.3694 77.775 65.6565 78.4357 64.419C78.4357 64.419 78.0896 63.6467 77.3113 62.3831Z" fill="#DBC7A0"/>
<path opacity="0.5" d="M58.9245 40.105L57.5524 43.3815C57.145 44.3547 56.1976 45.126 54.9822 45.4742C53.4083 45.925 51.7659 44.9531 51.8614 43.6272C51.9041 43.0337 52.3034 42.4926 52.9348 42.1726L57.9493 39.6308C58.0113 39.5995 58.0806 39.5784 58.1531 39.569L58.3252 39.5468C58.7257 39.495 59.0524 39.7993 58.9245 40.105Z" fill="#B79967"/>
<path opacity="0.5" d="M62.0945 40.0506L63.8419 43.4522C64.0444 43.8465 64.5275 44.1041 65.0641 44.1041C66.0078 44.1041 66.6467 43.3407 66.2803 42.6503C66.0887 42.2892 65.8093 41.9618 65.458 41.6866L62.8535 39.6477C62.7663 39.5795 62.6487 39.541 62.5261 39.541C62.195 39.541 61.9696 39.8073 62.0945 40.0506Z" fill="#B79967"/>
<g opacity="0.5">
<path opacity="0.5" d="M57.9637 31.6702C58.2449 32.7508 58.5717 33.9995 58.8506 35.0624C58.9382 35.3965 59.5557 35.3521 59.5666 35.011L59.7746 28.4775C59.7816 28.2552 59.4277 28.1542 59.2546 28.3292C59.2378 28.3463 59.2196 28.3631 59.2004 28.3797C58.1583 29.2729 57.6533 30.4779 57.9637 31.6702Z" fill="#B79967"/>
<path opacity="0.5" d="M50.039 29.2168C49.7681 29.509 49.7864 29.9105 50.0839 30.1861C51.8281 31.8026 54.3908 34.1042 56.442 35.6442C56.8292 35.9349 57.4287 35.5652 57.1711 35.1949L53.0758 29.3051C52.7769 28.8752 52.1578 28.6596 51.5527 28.7612C51.5492 28.7618 51.5458 28.7624 51.5423 28.763L50.6283 28.9158C50.3918 28.9554 50.1822 29.0624 50.039 29.2168Z" fill="#B79967"/>
</g>
<path d="M56.1604 35.7383H63.5242C63.9088 35.7383 64.2208 36.1081 64.2208 36.564C64.2208 37.0201 63.9088 37.3897 63.5242 37.3897H56.1604C55.7758 37.3897 55.4639 37.0201 55.4639 36.564C55.4639 36.1079 55.7757 35.7383 56.1604 35.7383Z" fill="#492E18"/>
<path d="M56.1604 37.3887H63.5242C63.9088 37.3887 64.2208 37.7584 64.2208 38.2144C64.2208 38.6705 63.9088 39.0401 63.5242 39.0401H56.1604C55.7758 39.0401 55.4639 38.6705 55.4639 38.2144C55.4639 37.7583 55.7757 37.3887 56.1604 37.3887Z" fill="#674528"/>
<path opacity="0.5" d="M59.8427 62.4512C54.6057 62.4512 48.7081 64.3332 45.8418 65.3761L49.277 64.9219L52.751 64.7398C55.1014 64.6166 57.4874 64.5541 59.8429 64.5541C62.1983 64.5541 64.5843 64.6166 66.9347 64.7398L70.4088 64.9219L73.844 65.3761C70.9774 64.3331 65.0796 62.4512 59.8427 62.4512Z" fill="#B79967"/>
<path d="M29.6785 43.2269C27.0651 41.686 23.4236 39.7145 21.222 37.6328C19.4988 38.8823 20.1119 40.659 18.9062 41.8194C20.1954 42.2243 21.7436 42.0445 23.0504 42.2265C25.1075 42.5128 27.1786 43.7408 29.1517 44.0872L29.6785 43.2269Z" fill="#452C17"/>
<path d="M28.6247 42.9109C25.616 42.9109 21.5077 43.0633 18.5978 42.3828C17.6998 44.3509 19.0841 45.58 18.5932 47.2056C19.907 46.8969 21.1657 45.9478 22.3879 45.4367C24.3121 44.6318 26.6998 44.6377 28.5797 43.9281L28.6247 42.9109Z" fill="#533720"/>
<path d="M48.7234 67.8401C47.9451 66.5765 45.6967 59.5301 45.0913 54.3352C44.4859 49.1404 43.7941 47.7363 40.7674 46.4727C37.7406 45.2091 34.9733 44.0157 34.9733 44.0157V41.8394C38.7783 40.1546 43.1372 35.4316 43.1372 35.4316L41.1887 33.3485C40.8238 32.9584 40.221 32.766 39.6265 32.85C37.66 33.1276 35.6369 32.948 33.7909 32.3315L32.3853 31.8622C31.7167 31.6391 30.9467 31.8039 30.5009 32.2658L29.6603 33.1364C29.2011 33.6121 28.31 33.6017 27.8676 33.1155L27.2991 32.4905C26.9443 32.1005 26.2807 31.996 25.772 32.2501C24.8796 32.696 23.899 33.0136 22.8734 33.1888L21.5661 33.4122C21.2898 33.4594 21.0445 33.5876 20.8771 33.7723L19.3724 35.4317C19.3724 35.4317 23.7313 40.1547 27.5364 41.8395V44.0158C27.5364 44.0158 24.7691 45.2092 21.7423 46.4728C18.7156 47.7364 18.0237 49.1405 17.4185 54.3353C16.8131 59.5302 14.5647 66.5766 13.7864 67.8402C13.0081 69.1039 12.6621 69.876 12.6621 69.876C13.3226 71.1135 14.9366 71.8264 16.5753 71.6048L22.0883 70.8589L25.0917 70.6979C29.1961 70.4779 33.3138 70.4779 37.4181 70.6979L40.4216 70.8589L45.9344 71.6048C47.5732 71.8264 49.1871 71.1135 49.8478 69.876C49.8478 69.876 49.5017 69.1038 48.7234 67.8401Z" fill="#DCCDB1"/>
<path opacity="0.5" d="M30.3366 45.562L28.9646 48.8385C28.5571 49.8117 27.6098 50.583 26.3943 50.9313C24.8204 51.3821 23.178 50.4101 23.2735 49.0843C23.3162 48.4907 23.7155 47.9497 24.3469 47.6296L29.3614 45.0879C29.4234 45.0565 29.4928 45.0354 29.5652 45.0261L29.7373 45.0038C30.1378 44.952 30.4645 45.2564 30.3366 45.562Z" fill="#C3A97F"/>
<path opacity="0.5" d="M33.5067 45.5076L35.254 48.9093C35.4565 49.3035 35.9396 49.5612 36.4762 49.5612C37.4199 49.5612 38.0588 48.7977 37.6924 48.1073C37.5009 47.7462 37.2214 47.4188 36.8701 47.1437L34.2656 45.1047C34.1784 45.0365 34.0609 44.998 33.9383 44.998C33.6071 44.998 33.3817 45.2644 33.5067 45.5076Z" fill="#C3A97F"/>
<g opacity="0.5">
<path opacity="0.5" d="M29.3758 37.1272C29.6571 38.2078 29.9838 39.4565 30.2627 40.5194C30.3503 40.8535 30.9678 40.8091 30.9787 40.468L31.1867 33.9345C31.1937 33.7122 30.8398 33.6112 30.6667 33.7862C30.6499 33.8033 30.6317 33.8201 30.6125 33.8368C29.5704 34.7299 29.0654 35.9349 29.3758 37.1272Z" fill="#C3A97F"/>
<path opacity="0.5" d="M21.4512 34.6738C21.1802 34.9661 21.1985 35.3676 21.496 35.6431C23.2402 37.2596 25.8029 39.5612 27.8542 41.1012C28.2413 41.392 28.8408 41.0223 28.5832 40.6519L24.4879 34.7621C24.189 34.3323 23.5699 34.1166 22.9648 34.2182C22.9613 34.2188 22.9579 34.2195 22.9544 34.22L22.0404 34.3728C21.8039 34.4124 21.5943 34.5195 21.4512 34.6738Z" fill="#C3A97F"/>
</g>
<path d="M27.5725 41.1953H34.9363C35.3209 41.1953 35.6329 41.5651 35.6329 42.021C35.6329 42.4772 35.3209 42.8468 34.9363 42.8468H27.5725C27.1879 42.8468 26.876 42.4772 26.876 42.021C26.876 41.5649 27.1878 41.1953 27.5725 41.1953Z" fill="#533720"/>
<path d="M27.5725 42.8457H34.9363C35.3209 42.8457 35.6329 43.2155 35.6329 43.6714C35.6329 44.1275 35.3209 44.4972 34.9363 44.4972H27.5725C27.1879 44.4972 26.876 44.1275 26.876 43.6714C26.876 43.2153 27.1878 42.8457 27.5725 42.8457Z" fill="#69482E"/>
<path opacity="0.5" d="M31.2548 67.9082C26.0178 67.9082 20.1202 69.7903 17.2539 70.8332L20.6891 70.3789L24.1631 70.1968C26.5135 70.0736 28.8995 70.0112 31.255 70.0112C33.6104 70.0112 35.9964 70.0736 38.3468 70.1968L41.8209 70.3789L45.2562 70.8332C42.3895 69.7902 36.4917 67.9082 31.2548 67.9082Z" fill="#C3A97F"/>
<path d="M45.2123 71.8634L45.0127 70.9842L45.1946 70.9429C45.5327 69.5171 47.4982 68.0755 50.092 67.4865C52.6859 66.8974 55.0812 67.3485 56.0019 68.4884L56.1854 68.4467L56.3927 69.3598C56.7679 71.0116 54.5706 72.9188 51.4849 73.6196C48.3991 74.3204 45.5936 73.5494 45.2185 71.8975C45.2159 71.8863 45.2147 71.8748 45.2123 71.8634Z" fill="#E2B720"/>
<path d="M51.2762 72.7079C48.1904 73.4087 45.3848 72.6377 45.0097 70.9858C44.6345 69.3339 46.8319 67.4267 49.9176 66.7259C53.0034 66.0251 55.809 66.7961 56.1842 68.448C56.5593 70.0999 54.3619 72.0071 51.2762 72.7079Z" fill="#FFD829"/>
<path d="M51.1916 72.336C48.4902 72.9495 46.034 72.2745 45.7056 70.8284C45.3772 69.3823 47.3009 67.7126 50.0023 67.0991C52.7036 66.4856 55.1598 67.1606 55.4882 68.6067C55.8166 70.0528 53.893 71.7225 51.1916 72.336Z" fill="#E0BC3F"/>
<path d="M68.3785 67.1544L68.5781 66.2752L68.3962 66.2339C68.0582 64.8081 66.0926 63.3665 63.4988 62.7775C60.9049 62.1884 58.5096 62.6395 57.5889 63.7794L57.4054 63.7377L57.1981 64.6508C56.8229 66.3026 59.0202 68.2098 62.1059 68.9106C65.1917 69.6115 67.9972 68.8404 68.3723 67.1885C68.3749 67.1773 68.3762 67.1658 68.3785 67.1544Z" fill="#E2B720"/>
<path d="M62.3146 67.9989C65.4004 68.6997 68.206 67.9287 68.5811 66.2768C68.9563 64.6249 66.7589 62.7177 63.6732 62.0169C60.5874 61.3161 57.7818 62.0872 57.4067 63.739C57.0315 65.3909 59.2289 67.2981 62.3146 67.9989Z" fill="#FFD829"/>
<path d="M62.3992 67.627C65.1006 68.2405 67.5568 67.5655 67.8852 66.1194C68.2136 64.6733 66.2899 63.0036 63.5886 62.3901C60.8872 61.7766 58.431 62.4516 58.1026 63.8977C57.7742 65.3438 59.6979 67.0135 62.3992 67.627Z" fill="#E0BC3F"/>
<path d="M53.2629 66.1276L52.9864 65.2694L53.1639 65.2122C53.3746 63.7621 55.205 62.1524 57.7366 61.3364C60.2683 60.5204 62.6941 60.758 63.712 61.8121L63.891 61.7543L64.1783 62.6455C64.6979 64.2577 62.6779 66.3516 59.6661 67.3224C56.6544 68.2933 53.7918 67.7733 53.2721 66.161C53.2685 66.15 53.2662 66.1387 53.2629 66.1276Z" fill="#E2B720"/>
<path d="M59.3789 66.4322C56.3672 67.403 53.5044 66.883 52.9847 65.2707C52.4651 63.6585 54.4853 61.5645 57.497 60.5937C60.5087 59.6229 63.3715 60.1429 63.8912 61.7552C64.4109 63.3674 62.3907 65.4614 59.3789 66.4322Z" fill="#FFD829"/>
<path d="M59.2622 66.07C56.6257 66.9199 54.1195 66.4646 53.6645 65.0532C53.2096 63.6418 54.9781 61.8086 57.6147 60.9587C60.2513 60.1089 62.7575 60.5641 63.2124 61.9755C63.6674 63.387 61.8988 65.2201 59.2622 66.07Z" fill="#E0BC3F"/>
<path d="M24.8511 72.338L25.0508 71.4588L24.8689 71.4175C24.5308 69.9917 22.5653 68.5501 19.9715 67.9611C17.3776 67.372 14.9823 67.8231 14.0616 68.963L13.8781 68.9213L13.6707 69.8344C13.2956 71.4862 15.4929 73.3934 18.5786 74.0942C21.6643 74.795 24.4698 74.024 24.845 72.3721C24.8476 72.3609 24.8488 72.3494 24.8511 72.338Z" fill="#E2B720"/>
<path d="M18.7873 73.1825C21.873 73.8833 24.6786 73.1123 25.0538 71.4604C25.4289 69.8085 23.2316 67.9013 20.1458 67.2005C17.0601 66.4997 14.2545 67.2707 13.8793 68.9226C13.5042 70.5745 15.7015 72.4817 18.7873 73.1825Z" fill="#FFD829"/>
<path d="M18.8719 72.8106C21.5733 73.4241 24.0294 72.7491 24.3579 71.303C24.6863 69.8569 22.7626 68.1872 20.0612 67.5737C17.3598 66.9602 14.9037 67.6352 14.5753 69.0813C14.2468 70.5274 16.1705 72.1971 18.8719 72.8106Z" fill="#E0BC3F"/>
<path d="M9.73558 71.3111L9.45903 70.453L9.63657 70.3958C9.84726 68.9457 11.6777 67.336 14.2093 66.52C16.7409 65.704 19.1668 65.9416 20.1846 66.9957L20.3637 66.9379L20.6509 67.8291C21.1706 69.4413 19.1505 71.5352 16.1388 72.506C13.1271 73.4769 10.2644 72.9568 9.74474 71.3446C9.74115 71.3336 9.7389 71.3223 9.73558 71.3111Z" fill="#E2B720"/>
<path d="M15.8516 71.6158C12.8399 72.5866 9.97709 72.0665 9.4574 70.4543C8.93771 68.8421 10.9579 66.7481 13.9696 65.7773C16.9814 64.8065 19.8441 65.3265 20.3638 66.9388C20.8835 68.551 18.8633 70.645 15.8516 71.6158Z" fill="#FFD829"/>
<path d="M15.7349 71.2536C13.0983 72.1034 10.5921 71.6482 10.1372 70.2368C9.68221 68.8254 11.4508 66.9922 14.0874 66.1423C16.724 65.2925 19.2301 65.7477 19.6851 67.1591C20.1401 68.5706 18.3715 70.4037 15.7349 71.2536Z" fill="#E0BC3F"/>
<path d="M67.5955 63.4596L67.872 62.6015L67.6945 62.5442C67.4838 61.0941 65.6534 59.4844 63.1218 58.6685C60.5901 57.8524 58.1643 58.09 57.1464 59.1441L56.9674 59.0863L56.6801 59.9775C56.1605 61.5897 58.1805 63.6837 61.1923 64.6544C64.204 65.6253 67.0666 65.1053 67.5863 63.493C67.5899 63.482 67.5922 63.4707 67.5955 63.4596Z" fill="#E2B720"/>
<path d="M61.4795 63.7642C64.4912 64.735 67.354 64.215 67.8737 62.6027C68.3933 60.9905 66.3731 58.8965 63.3614 57.9257C60.3497 56.9549 57.4869 57.475 56.9672 59.0872C56.4475 60.6994 58.4677 62.7934 61.4795 63.7642Z" fill="#FFD829"/>
<path d="M61.5962 63.402C64.2327 64.2519 66.7389 63.7967 67.1939 62.3852C67.6488 60.9738 65.8803 59.1406 63.2437 58.2908C60.6071 57.4409 58.1009 57.8961 57.646 59.3076C57.191 60.719 58.9596 62.5521 61.5962 63.402Z" fill="#E0BC3F"/>
<path d="M60.3279 70.8365L60.6044 69.9784L60.4269 69.9212C60.2162 68.4711 58.3858 66.8614 55.8542 66.0454C53.3225 65.2294 50.8967 65.467 49.8788 66.5211L49.6998 66.4633L49.4125 67.3545C48.8929 68.9667 50.913 71.0606 53.9247 72.0314C56.9364 73.0023 59.7991 72.4822 60.3187 70.87C60.3223 70.859 60.3246 70.8477 60.3279 70.8365Z" fill="#E2B720"/>
<path d="M54.2119 71.1412C57.2236 72.1119 60.0864 71.5919 60.6061 69.9797C61.1258 68.3674 59.1056 66.2735 56.0938 65.3027C53.0821 64.3319 50.2193 64.8519 49.6997 66.4642C49.18 68.0764 51.2002 70.1704 54.2119 71.1412Z" fill="#FFD829"/>
<path d="M54.3286 70.779C56.9652 71.6288 59.4714 71.1736 59.9263 69.7622C60.3813 68.3507 58.6127 66.5176 55.9761 65.6677C53.3395 64.8179 50.8333 65.2731 50.3784 66.6845C49.9234 68.096 51.692 69.9291 54.3286 70.779Z" fill="#E0BC3F"/>
<path d="M45.9953 68.1686L45.7188 67.3104L45.8963 67.2532C46.107 65.8031 47.9374 64.1934 50.469 63.3775C53.0007 62.5614 55.4265 62.799 56.4444 63.8531L56.6235 63.7953L56.9107 64.6865C57.4304 66.2987 55.4103 68.3926 52.3986 69.3634C49.3868 70.3343 46.5242 69.8143 46.0045 68.202C46.0009 68.191 45.9987 68.1797 45.9953 68.1686Z" fill="#E2B720"/>
<path d="M52.1114 68.4732C49.0996 69.444 46.2369 68.924 45.7172 67.3117C45.1975 65.6995 47.2177 63.6055 50.2294 62.6347C53.2411 61.6639 56.1039 62.1839 56.6236 63.7962C57.1433 65.4084 55.1231 67.5024 52.1114 68.4732Z" fill="#FFD829"/>
<path d="M51.9947 68.111C49.3581 68.9609 46.8519 68.5056 46.3969 67.0942C45.942 65.6828 47.7105 63.8496 50.3471 62.9998C52.9837 62.1499 55.4899 62.6051 55.9449 64.0166C56.3998 65.428 54.6313 67.2611 51.9947 68.111Z" fill="#E0BC3F"/>
</svg>
