<svg width="87" height="87" viewBox="0 0 87 87" fill="none" xmlns="http://www.w3.org/2000/svg">
<rect x="0.476562" y="0.822266" width="86" height="86" rx="4" fill="#E5EEF0"/>
<path d="M55.263 50.2022V46.553H54.5085C51.896 41.2285 42.8464 37.3008 32.0803 37.3008C21.3142 37.3008 12.2645 41.2289 9.6521 46.553H8.89062V50.3426C8.89062 57.1987 19.2731 62.7567 32.0803 62.7567C44.8875 62.7567 55.2699 57.1987 55.2699 50.3426C55.2699 50.2953 55.2641 50.2487 55.263 50.2022Z" fill="#E2B720"/>
<path d="M32.0803 58.9669C44.8876 58.9669 55.2699 53.4089 55.2699 46.5528C55.2699 39.6967 44.8876 34.1387 32.0803 34.1387C19.273 34.1387 8.89062 39.6967 8.89062 46.5528C8.89062 53.4089 19.273 58.9669 32.0803 58.9669Z" fill="#FFD829"/>
<path d="M32.0802 57.4206C43.292 57.4206 52.381 52.5551 52.381 46.5531C52.381 40.5511 43.292 35.6855 32.0802 35.6855C20.8683 35.6855 11.7793 40.5511 11.7793 46.5531C11.7793 52.5551 20.8683 57.4206 32.0802 57.4206Z" fill="#E0BC3F"/>
<path d="M77.1233 54.3974L78.2426 50.9242L77.5241 50.6926C76.6713 44.8234 69.2628 38.3083 59.0164 35.0057C48.7696 31.7027 38.9511 32.6645 34.8314 36.9308L34.1067 36.697L32.9441 40.304C30.8408 46.8292 39.017 55.3043 51.2067 59.2335C63.3965 63.1631 74.9829 61.0583 77.0862 54.5327C77.1008 54.4883 77.1099 54.4425 77.1233 54.3974Z" fill="#E2B720"/>
<path d="M52.3734 55.632C64.5632 59.5612 76.1501 57.4566 78.2535 50.9311C80.3569 44.4056 72.1803 35.9304 59.9905 32.0012C47.8007 28.072 36.2138 30.1767 34.1104 36.7021C32.007 43.2276 40.1836 51.7028 52.3734 55.632Z" fill="#FFD829"/>
<path d="M52.8454 54.1618C63.5169 57.6016 73.6606 55.7591 75.502 50.0464C77.3434 44.3337 70.1852 36.9142 59.5138 33.4744C48.8423 30.0346 38.6987 31.8771 36.8572 37.5898C35.0158 43.3025 42.174 50.7221 52.8454 54.1618Z" fill="#E0BC3F"/>
</svg>
