<svg width="87" height="87" viewBox="0 0 87 87" fill="none" xmlns="http://www.w3.org/2000/svg">
<rect x="0.476562" y="0.822266" width="86" height="86" rx="4" fill="#E5EEF0"/>
<path d="M51.7878 29.9433L52.6564 27.248L52.0988 27.0683C51.437 22.5135 45.6877 17.4576 37.7361 14.8946C29.7842 12.3314 22.1647 13.0778 18.9677 16.3886L18.4052 16.2071L17.503 19.0063C15.8708 24.0701 22.2158 30.6471 31.6755 33.6963C41.1352 36.7458 50.1267 35.1124 51.759 30.0483C51.7703 30.0139 51.7773 29.9783 51.7878 29.9433Z" fill="#E2B720"/>
<path d="M32.5795 30.9005C42.0392 33.9497 51.0311 32.3164 52.6634 27.2524C54.2958 22.1884 47.9504 15.6113 38.4907 12.5621C29.0309 9.51289 20.0391 11.1462 18.4067 16.2102C16.7744 21.2742 23.1198 27.8513 32.5795 30.9005Z" fill="#FFD829"/>
<path d="M32.9469 29.7607C41.2284 32.4301 49.1003 31.0002 50.5293 26.567C51.9583 22.1337 46.4033 16.3759 38.1218 13.7064C29.8404 11.037 21.9685 12.4669 20.5395 16.9002C19.1105 21.3334 24.6655 27.0913 32.9469 29.7607Z" fill="#E0BC3F"/>
<path d="M52.4056 66.3049V63.473H51.8201C49.7927 59.341 42.7699 56.293 34.415 56.293C26.0601 56.293 19.0372 59.3413 17.0099 63.473H16.4189V66.4139C16.4189 71.7345 24.4761 76.0477 34.415 76.0477C44.3539 76.0477 52.411 71.7345 52.411 66.4139C52.411 66.3772 52.4065 66.3411 52.4056 66.3049Z" fill="#E2B720"/>
<path d="M34.415 73.1075C44.3539 73.1075 52.411 68.7943 52.411 63.4737C52.411 58.1531 44.3539 53.8398 34.415 53.8398C24.476 53.8398 16.4189 58.1531 16.4189 63.4737C16.4189 68.7943 24.476 73.1075 34.415 73.1075Z" fill="#FFD829"/>
<path d="M34.4153 71.9063C43.1162 71.9063 50.1696 68.1304 50.1696 63.4727C50.1696 58.8149 43.1162 55.0391 34.4153 55.0391C25.7145 55.0391 18.6611 58.8149 18.6611 63.4727C18.6611 68.1304 25.7145 71.9063 34.4153 71.9063Z" fill="#E0BC3F"/>
<path d="M69.3698 69.5605L70.2384 66.8652L69.6808 66.6854C69.019 62.1307 63.2697 57.0748 55.3181 54.5118C47.3662 51.9486 39.7468 52.695 36.5497 56.0058L35.9873 55.8243L35.0851 58.6235C33.4528 63.6873 39.7978 70.2643 49.2575 73.3135C58.7172 76.363 67.7088 74.7296 69.341 69.6655C69.3523 69.6311 69.3594 69.5955 69.3698 69.5605Z" fill="#E2B720"/>
<path d="M50.1625 70.5177C59.6223 73.5669 68.6141 71.9336 70.2465 66.8696C71.8788 61.8056 65.5334 55.2285 56.0737 52.1793C46.6139 49.1301 37.6221 50.7634 35.9897 55.8274C34.3574 60.8914 40.7028 67.4685 50.1625 70.5177Z" fill="#FFD829"/>
<path d="M50.53 69.3779C58.8114 72.0473 66.6833 70.6174 68.1123 66.1841C69.5413 61.7509 63.9863 55.993 55.7048 53.3236C47.4234 50.6542 39.5515 52.0841 38.1225 56.5173C36.6935 60.9506 42.2485 66.7084 50.53 69.3779Z" fill="#E0BC3F"/>
<path d="M24.3489 61.1855L23.4803 58.4902L24.038 58.3104C24.6997 53.7557 30.449 48.6998 38.4006 46.1368C46.3525 43.5736 53.972 44.32 57.1691 47.6308L57.7315 47.4493L58.6337 50.2485C60.266 55.3123 53.9209 61.8893 44.4612 64.9385C35.0015 67.988 26.01 66.3546 24.3777 61.2905C24.3664 61.2561 24.3594 61.2205 24.3489 61.1855Z" fill="#E2B720"/>
<path d="M43.5572 62.1427C34.0975 65.1919 25.1056 63.5586 23.4733 58.4946C21.841 53.4306 28.1863 46.8535 37.6461 43.8043C47.1058 40.7551 56.0977 42.3884 57.73 47.4524C59.3623 52.5164 53.0169 59.0935 43.5572 62.1427Z" fill="#FFD829"/>
<path d="M43.1898 61.0029C34.9083 63.6723 27.0365 62.2424 25.6075 57.8091C24.1785 53.3759 29.7335 47.618 38.0149 44.9486C46.2963 42.2792 54.1682 43.7091 55.5972 48.1423C57.0262 52.5756 51.4712 58.3334 43.1898 61.0029Z" fill="#E0BC3F"/>
</svg>
