<svg width="87" height="87" viewBox="0 0 87 87" fill="none" xmlns="http://www.w3.org/2000/svg">
<rect x="0.476562" y="0.822266" width="86" height="86" rx="4" fill="#E5EEF0"/>
<path d="M39.0654 32.1655C35.102 29.8286 29.5794 26.8386 26.2406 23.6816C23.6272 25.5766 24.557 28.271 22.7285 30.0309C24.6835 30.6449 27.0316 30.3722 29.0134 30.6482C32.133 31.0825 35.274 32.9448 38.2663 33.4701L39.0654 32.1655Z" fill="#452C17"/>
<path d="M37.4677 31.6857C32.9048 31.6857 26.6743 31.9168 22.2612 30.8848C20.8994 33.8695 22.9987 35.7335 22.2542 38.1989C24.2466 37.7307 26.1556 36.2913 28.0092 35.5161C30.9273 34.2955 34.5484 34.3044 37.3994 33.2283L37.4677 31.6857Z" fill="#533720"/>
<path d="M67.9489 69.4935C66.7686 67.5771 63.3588 56.8907 62.4406 49.0124C61.5225 41.1341 60.4734 39.0047 55.8832 37.0884C51.2928 35.172 47.0961 33.3622 47.0961 33.3622V30.0618C52.8666 27.5066 59.4772 20.3439 59.4772 20.3439L56.5222 17.1848C55.9688 16.5931 55.0546 16.3014 54.153 16.4288C51.1707 16.8498 48.1025 16.5773 45.3029 15.6425L43.1712 14.9307C42.1573 14.5923 40.9895 14.8422 40.3134 15.5428L39.0386 16.863C38.3422 17.5845 36.9907 17.5687 36.3199 16.8314L35.4576 15.8836C34.9196 15.2921 33.9131 15.1337 33.1418 15.519C31.7883 16.1952 30.3013 16.6768 28.7458 16.9425L26.7632 17.2814C26.3441 17.353 25.9721 17.5473 25.7184 17.8274L23.4364 20.3441C23.4364 20.3441 30.0469 27.5068 35.8176 30.0619V33.3624C35.8176 33.3624 31.6207 35.1722 27.0305 37.0885C22.4403 39.0049 21.391 41.1343 20.4731 49.0126C19.555 56.8909 16.1451 67.5773 14.9648 69.4936C13.7844 71.41 13.2598 72.5811 13.2598 72.5811C14.2615 74.4578 16.7091 75.539 19.1944 75.2028L27.5552 74.0717L32.11 73.8275C38.3345 73.4939 44.5794 73.4939 50.8038 73.8275L55.3587 74.0717L63.7194 75.2028C66.2046 75.539 68.6522 74.4578 69.6542 72.5811C69.6542 72.5811 69.1293 71.4099 67.9489 69.4935Z" fill="#DCCDB1"/>
<path opacity="0.5" d="M40.0643 35.7089L37.9835 40.6778C37.3656 42.1537 35.9289 43.3235 34.0856 43.8516C31.6987 44.5353 29.2078 43.0613 29.3527 41.0505C29.4175 40.1503 30.023 39.3298 30.9806 38.8445L38.5854 34.9897C38.6794 34.9422 38.7846 34.9102 38.8945 34.896L39.1554 34.8623C39.7629 34.7837 40.2583 35.2453 40.0643 35.7089Z" fill="#C3A97F"/>
<path opacity="0.5" d="M44.8714 35.6263L47.5214 40.7851C47.8285 41.383 48.5611 41.7738 49.3749 41.7738C50.8061 41.7738 51.775 40.616 51.2194 39.5689C50.9289 39.0213 50.5051 38.5248 49.9723 38.1075L46.0224 35.0153C45.8902 34.9118 45.7119 34.8535 45.526 34.8535C45.0237 34.8535 44.6818 35.2574 44.8714 35.6263Z" fill="#C3A97F"/>
<g opacity="0.5">
<path opacity="0.5" d="M38.6081 22.9147C39.0347 24.5535 39.5303 26.4471 39.9533 28.0591C40.0861 28.5658 41.0225 28.4984 41.039 27.9812L41.3545 18.0727C41.3652 17.7355 40.8284 17.5824 40.566 17.8478C40.5404 17.8737 40.5128 17.8992 40.4837 17.9245C38.9033 19.279 38.1375 21.1064 38.6081 22.9147Z" fill="#C3A97F"/>
<path opacity="0.5" d="M26.5901 19.1916C26.1792 19.6347 26.2069 20.2437 26.6581 20.6616C29.3033 23.1131 33.1898 26.6036 36.3006 28.9391C36.8878 29.38 37.7969 28.8194 37.4063 28.2577L31.1955 19.3254C30.7422 18.6735 29.8033 18.3465 28.8855 18.5006C28.8803 18.5015 28.8751 18.5025 28.8698 18.5033L27.4837 18.735C27.1251 18.7951 26.8072 18.9575 26.5901 19.1916Z" fill="#C3A97F"/>
</g>
<path d="M35.8728 29.084H47.0404C47.6237 29.084 48.0968 29.6448 48.0968 30.3363C48.0968 31.028 47.6237 31.5885 47.0404 31.5885H35.8728C35.2895 31.5885 34.8164 31.028 34.8164 30.3363C34.8164 29.6445 35.2893 29.084 35.8728 29.084Z" fill="#533720"/>
<path d="M35.8728 31.5859H47.0404C47.6237 31.5859 48.0968 32.1467 48.0968 32.8382C48.0968 33.5299 47.6237 34.0905 47.0404 34.0905H35.8728C35.2895 34.0905 34.8164 33.5299 34.8164 32.8382C34.8164 32.1465 35.2893 31.5859 35.8728 31.5859Z" fill="#69482E"/>
<path opacity="0.5" d="M41.4569 69.5977C33.5147 69.5977 24.5705 72.4519 20.2236 74.0335L25.4334 73.3446L30.7018 73.0685C34.2664 72.8817 37.8849 72.787 41.4571 72.787C45.0293 72.787 48.6478 72.8817 52.2124 73.0685L57.4811 73.3446L62.6908 74.0335C58.3433 72.4518 49.399 69.5977 41.4569 69.5977Z" fill="#C3A97F"/>
<path d="M48.2471 74.488L47.9055 72.9837L48.2167 72.913C48.7951 70.4733 52.1583 68.0067 56.5964 66.9989C61.0347 65.9909 65.1332 66.7628 66.7086 68.7132L67.0225 68.6418L67.3773 70.2042C68.0192 73.0305 64.2595 76.2938 58.9797 77.4929C53.6998 78.6921 48.8995 77.3729 48.2576 74.5464C48.2532 74.5272 48.251 74.5075 48.2471 74.488Z" fill="#E2B720"/>
<path d="M58.6239 75.932C53.344 77.131 48.5434 75.8118 47.9015 72.9854C47.2596 70.1589 51.0195 66.8956 56.2993 65.6965C61.5792 64.4974 66.3797 65.8167 67.0216 68.6431C67.6635 71.4695 63.9037 74.7329 58.6239 75.932Z" fill="#FFD829"/>
<path d="M58.4792 75.2968C53.857 76.3465 49.6544 75.1916 49.0925 72.7172C48.5305 70.2428 51.822 67.386 56.4442 66.3363C61.0664 65.2865 65.269 66.4414 65.831 68.9158C66.3929 71.3902 63.1014 74.2471 58.4792 75.2968Z" fill="#E0BC3F"/>
<path d="M74.1101 72.7295L74.5833 71.2612L74.2795 71.1633C73.919 68.6821 70.7871 65.9278 66.4554 64.5316C62.1236 63.1353 57.9729 63.5419 56.2312 65.3455L55.9249 65.2466L55.4334 66.7715C54.5442 69.53 58.0007 73.1129 63.1539 74.7739C68.3071 76.4352 73.2052 75.5454 74.0944 72.7867C74.1006 72.7679 74.1044 72.7485 74.1101 72.7295Z" fill="#E2B720"/>
<path d="M63.6467 73.2514C68.8 74.9125 73.6983 74.0228 74.5875 71.2641C75.4767 68.5055 72.0201 64.9226 66.8669 63.2615C61.7136 61.6005 56.8153 62.4902 55.9261 65.2489C55.0369 68.0075 58.4935 71.5904 63.6467 73.2514Z" fill="#FFD829"/>
<path d="M63.8465 72.6306C68.3579 74.0847 72.6461 73.3058 73.4246 70.8908C74.203 68.4757 71.1769 65.3391 66.6656 63.885C62.1542 62.4308 57.866 63.2097 57.0876 65.6248C56.3091 68.0398 59.3352 71.1764 63.8465 72.6306Z" fill="#E0BC3F"/>
<path d="M49.5862 68.1689L49.113 66.7007L49.4168 66.6027C49.7773 64.1215 52.9092 61.3673 57.2409 59.9711C61.5727 58.5748 65.7234 58.9814 67.4651 60.7849L67.7714 60.6861L68.2629 62.211C69.1521 64.9695 65.6956 68.5523 60.5424 70.2134C55.3892 71.8746 50.491 70.9848 49.6019 68.2261C49.5957 68.2074 49.5919 68.188 49.5862 68.1689Z" fill="#E2B720"/>
<path d="M60.0505 68.6909C54.8973 70.352 49.9989 69.4622 49.1097 66.7036C48.2205 63.9449 51.6772 60.3621 56.8304 58.701C61.9836 57.0399 66.882 57.9297 67.7712 60.6883C68.6604 63.4469 65.2037 67.0298 60.0505 68.6909Z" fill="#FFD829"/>
<path d="M59.8507 68.07C55.3394 69.5242 51.0512 68.7452 50.2727 66.3302C49.4942 63.9152 52.5204 60.7786 57.0317 59.3244C61.543 57.8702 65.8313 58.6492 66.6097 61.0642C67.3882 63.4792 64.3621 66.6158 59.8507 68.07Z" fill="#E0BC3F"/>
</svg>
