<svg width="23" height="22" viewBox="0 0 23 22" fill="none" xmlns="http://www.w3.org/2000/svg">
<circle cx="11.2539" cy="11.0005" r="10.165" fill="#E5EEF0" stroke="#32636A" stroke-width="1.67"/>
<path d="M16.0628 17.0005V15.6672C16.0628 14.9599 15.7819 14.2816 15.2818 13.7815C14.7817 13.2814 14.1034 13.0005 13.3962 13.0005H9.39616C8.68891 13.0005 8.01064 13.2814 7.51054 13.7815C7.01044 14.2816 6.72949 14.9599 6.72949 15.6672V17.0005" stroke="#32636A" stroke-width="1.67" stroke-linecap="round" stroke-linejoin="round"/>
<path d="M11.3962 10.3338C12.8689 10.3338 14.0628 9.13991 14.0628 7.66716C14.0628 6.1944 12.8689 5.00049 11.3962 5.00049C9.9234 5.00049 8.72949 6.1944 8.72949 7.66716C8.72949 9.13991 9.9234 10.3338 11.3962 10.3338Z" stroke="#32636A" stroke-width="1.67" stroke-linecap="round" stroke-linejoin="round"/>
<circle cx="19.1489" cy="3.7373" r="2.27002" fill="#DA0A1E"/>
</svg>
