<svg width="121" height="91" viewBox="0 0 121 91" fill="none" xmlns="http://www.w3.org/2000/svg">
<rect x="17.6152" width="86" height="86" rx="4" fill="#E5EEF0"/>
<path d="M56.6086 90.3477H53.5469V54.4866H56.6086V90.3477Z" fill="#32636A"/>
<path d="M57.4887 54.4876C57.4887 55.8191 56.4094 56.8984 55.0779 56.8984C53.7466 56.8984 52.667 55.8191 52.667 54.4876C52.667 53.156 53.7466 52.0767 55.0779 52.0767C56.4094 52.0767 57.4887 53.156 57.4887 54.4876Z" fill="#E2B720"/>
<path d="M79.4895 90.3477H76.4277V54.4866H79.4895V90.3477Z" fill="#32636A"/>
<path d="M80.3689 54.4876C80.3689 55.8191 79.2893 56.8984 77.958 56.8984C76.6265 56.8984 75.5469 55.8191 75.5469 54.4876C75.5469 53.156 76.6265 52.0767 77.958 52.0767C79.2893 52.0767 80.3689 53.156 80.3689 54.4876Z" fill="#E2B720"/>
<path d="M87.2793 67.3809H45.7569C45.313 67.3809 44.9531 67.021 44.9531 66.5771V61.3117C44.9531 60.8677 45.313 60.5079 45.7569 60.5079H87.2793C87.7232 60.5079 88.0831 60.8677 88.0831 61.3117V66.5771C88.0831 67.021 87.7232 67.3809 87.2793 67.3809Z" fill="#D0DBDD"/>
<path d="M88.0831 61.3127C88.0831 60.8687 87.7232 60.5089 87.2793 60.5089H45.7569C45.313 60.5089 44.9531 60.8687 44.9531 61.3127V63.9453H88.0831V61.3127Z" fill="#EFF2F3"/>
<path d="M59.9502 60.5079L53.0771 67.3809H58.2215L65.0943 60.5079H59.9502Z" fill="#C69C0C"/>
<path d="M44.9531 61.2127V65.7852L50.2306 60.5079H45.658C45.2688 60.5079 44.9531 60.8236 44.9531 61.2127Z" fill="#C69C0C"/>
<path d="M74.8142 60.5079L67.9414 67.3809H73.0855L79.9585 60.5079H74.8142Z" fill="#C69C0C"/>
<path d="M88.0832 62.1036L82.8057 67.3809H87.3783C87.7675 67.3809 88.0832 67.0655 88.0832 66.6761V62.1036Z" fill="#C69C0C"/>
<path d="M59.9502 60.5089L56.5137 63.9453H61.6578L65.0943 60.5089H59.9502Z" fill="#E2B720"/>
<path d="M45.658 60.5089C45.2688 60.5089 44.9531 60.8246 44.9531 61.2136V63.9453H46.7941L50.2306 60.5089H45.658Z" fill="#E2B720"/>
<path d="M74.8142 60.5089L71.3779 63.9453H76.522L79.9585 60.5089H74.8142Z" fill="#E2B720"/>
<path d="M88.0832 62.1044L86.2422 63.9453H88.0832V62.1044Z" fill="#E2B720"/>
<path d="M87.2793 81.0879H45.7569C45.313 81.0879 44.9531 80.728 44.9531 80.284V75.0184C44.9531 74.5747 45.313 74.2148 45.7569 74.2148H87.2793C87.7232 74.2148 88.0831 74.5747 88.0831 75.0184V80.284C88.0831 80.728 87.7232 81.0879 87.2793 81.0879Z" fill="#D0DBDD"/>
<path d="M88.0831 75.0194C88.0831 74.5757 87.7232 74.2158 87.2793 74.2158H45.7569C45.313 74.2158 44.9531 74.5757 44.9531 75.0194V77.6523H88.0831V75.0194Z" fill="#EFF2F3"/>
<path d="M59.9502 74.2148L53.0771 81.0879H58.2215L65.0943 74.2148H59.9502Z" fill="#C69C0C"/>
<path d="M44.9531 74.9195V79.4922L50.2306 74.2149H45.658C45.2688 74.2149 44.9531 74.5304 44.9531 74.9195Z" fill="#C69C0C"/>
<path d="M74.8142 74.2148L67.9414 81.0879H73.0855L79.9585 74.2148H74.8142Z" fill="#C69C0C"/>
<path d="M88.0832 75.8103L82.8057 81.0879H87.3783C87.7675 81.0879 88.0832 80.7722 88.0832 80.383V75.8103Z" fill="#C69C0C"/>
<path d="M59.9502 74.2158L56.5137 77.6523H61.6578L65.0943 74.2158H59.9502Z" fill="#E2B720"/>
<path d="M45.658 74.2158C45.2688 74.2158 44.9531 74.5313 44.9531 74.9204V77.6523H46.7941L50.2306 74.2158H45.658Z" fill="#E2B720"/>
<path d="M74.8142 74.2158L71.3779 77.6523H76.522L79.9585 74.2158H74.8142Z" fill="#E2B720"/>
<path d="M88.0832 75.8113L86.2422 77.6523H88.0832V75.8113Z" fill="#E2B720"/>
<path d="M59.3897 39.7066C59.3897 39.7066 51.5208 30.2885 47.9284 28.5208C41.6002 25.4064 36.9124 26.8767 36.9124 26.8767L37.541 27.8322C37.541 27.8322 45.9219 29.1101 42.6894 36.2881L47.2206 40.7104C47.2206 40.7104 52.2571 37.4164 56.1703 43.0052L59.3897 39.7066Z" fill="#95B0B4"/>
<path d="M61.729 39.9751L56.3232 44.8475L53.3166 41.2625L57.739 36.7314L61.729 39.9751Z" fill="#6F979D"/>
<path d="M52.4218 34.9862L49.5631 37.5086L45.5819 34.1653L48.1526 30.8196L52.4218 34.9862Z" fill="#6F979D"/>
<path d="M47.2219 40.7098C47.2219 40.7098 41.7967 44.0021 42.0367 47.4891L35.8396 41.4408C35.8396 41.4408 38.6713 41.4724 42.6907 36.2875L47.2219 40.7098Z" fill="#95B0B4"/>
<path d="M42.5393 47.9798L35.3427 40.9561L8.51845 69.4352L15.1155 75.8738L42.5393 47.9798Z" fill="#E2B720"/>
<path d="M12.8135 67.7731L16.2775 71.1539L37.5065 48.9235L34.3311 45.8245L12.8135 67.7731Z" fill="#C69C0C"/>
<path d="M88.0623 48.1157L103.852 65.4343C104.082 65.6922 104.537 66.2321 104.752 66.6886C105.064 67.3498 105.129 68.4008 104.974 69.5388C104.581 72.4268 105.807 74.2306 107.64 75.5242C109.263 76.6687 111.024 77.3457 111.435 77.319C111.474 77.3165 111.909 77.276 111.839 77.12C111.768 76.9636 109.463 73.459 109.463 73.459C108.758 72.1847 109.14 70.5825 110.345 69.7643L112.572 68.2523C113.866 67.3741 115.626 67.7184 116.495 69.0154L116.52 69.0584L118.486 72.8997C118.578 73.0806 118.804 73.146 118.979 73.0424L118.984 73.0397C119.058 72.9955 119.112 72.9269 119.138 72.8447C119.361 72.1452 120.317 68.7379 118.734 65.9768C116.96 62.8842 113.443 61.9245 111.75 61.6171C110.547 61.3985 109.708 60.6321 109.412 60.3244L93.7677 43.1659L93.768 43.1656L93.7542 43.151L93.6426 43.0285C93.4176 42.7768 92.9482 42.2237 92.7287 41.7584C92.4169 41.0972 92.3517 40.0462 92.5067 38.9082C92.9001 36.0202 91.674 34.2164 89.8404 32.9228C88.2182 31.7782 86.4574 31.1015 86.0455 31.128C86.0066 31.1305 85.5717 31.1709 85.6422 31.3273C85.7127 31.4834 88.0176 34.988 88.0176 34.988C88.7232 36.2623 88.3407 37.8645 87.1356 38.6826L84.9083 40.1948C83.6145 41.0732 81.8544 40.7286 80.9863 39.4315L80.9611 39.3886L78.9953 35.5472C78.9027 35.3664 78.6766 35.3012 78.5017 35.4046L78.4972 35.4073C78.423 35.4514 78.369 35.5201 78.3429 35.6023C78.1196 36.3018 77.1641 39.7091 78.7472 42.4702C80.5206 45.563 84.0378 46.5224 85.7313 46.8299C86.9257 47.047 87.761 47.8039 88.0623 48.1157Z" fill="#6F979D"/>
<path d="M107.465 60.9241L92.8751 44.9221C92.1556 44.133 90.9327 44.0765 90.1437 44.796C89.3545 45.5153 89.2982 46.7383 90.0175 47.5274L104.607 63.5294C105.327 64.3185 106.55 64.375 107.339 63.6555C108.128 62.9362 108.184 61.7131 107.465 60.9241Z" fill="#95B0B4"/>
</svg>
