<svg width="408" height="95" viewBox="0 0 408 95" fill="none" xmlns="http://www.w3.org/2000/svg">
<path d="M380.731 62.5545L396.372 20.9136H407.243L377.914 94.6693H367.708L375.603 76.0416L353.192 20.9136H364.372L380.731 62.5545Z" fill="#32636A"/>
<path d="M345.129 9.73357C342.599 9.73357 340.702 10.349 339.437 11.5797C338.206 12.8105 337.591 14.5883 337.591 16.913V20.913H351.591V29.5284H337.591V76.2975H326.873V29.5284H317.693V20.913H326.873V18.9643C326.873 16.9814 326.924 15.2891 327.027 13.8874C327.163 12.4857 327.488 11.0327 328.001 9.52844C328.514 8.02417 329.317 6.67375 330.411 5.47717C331.71 4.04128 333.163 2.99855 334.77 2.34898C336.411 1.66522 337.95 1.25497 339.386 1.11821C340.821 0.981461 342.565 0.913086 344.616 0.913086H351.591V9.73357H345.129Z" fill="#32636A"/>
<path d="M307.166 76.2975H296.448V20.9131H307.166V76.2975Z" fill="#32636A"/>
<path d="M268.052 29.5282V53.9897V56.9128C268.052 58.6564 268.12 60.0752 268.257 61.1692C268.394 62.229 268.702 63.1521 269.18 63.9384C270.001 65.3059 271.146 66.2974 272.616 66.9128C274.12 67.4939 275.949 67.7845 278.103 67.7845C279.949 67.7845 282.086 67.5965 284.514 67.2204V76.2973C281.334 76.9127 278.411 77.2204 275.744 77.2204C271.915 77.2204 268.565 76.605 265.693 75.3743C262.855 74.1435 260.736 72.2119 259.334 69.5794C258.479 67.9726 257.915 66.3316 257.642 64.6563C257.402 62.9469 257.283 60.8786 257.283 58.4512V54.5025V29.5282H246.667V20.9129H257.283V5.52832H268.052V20.9129H284.514V29.5282H268.052Z" fill="#32636A"/>
<path d="M219.783 77.7846C213.048 77.7846 207.561 76.2974 203.321 73.3231C199.082 70.3487 196.484 66.1607 195.526 60.759L206.501 59.0667C207.184 61.9727 208.757 64.2462 211.219 65.8872C213.714 67.5282 216.808 68.3487 220.501 68.3487C223.851 68.3487 226.466 67.665 228.347 66.2974C230.261 64.9299 231.219 63.0496 231.219 60.6564C231.219 59.1864 230.877 58.041 230.193 57.2205C229.509 56.3658 228.159 55.5624 226.142 54.8103C224.159 54.0582 220.894 53.0667 216.347 51.8359C211.492 50.571 207.697 49.2377 204.962 47.836C202.261 46.4343 200.313 44.8103 199.116 42.9642C197.92 41.0838 197.321 38.7591 197.321 35.9898C197.321 32.6736 198.21 29.7676 199.988 27.2719C201.766 24.742 204.278 22.7933 207.526 21.4258C210.774 20.0583 214.552 19.3745 218.86 19.3745C223.065 19.3745 226.843 20.0412 230.193 21.3745C233.543 22.7078 236.227 24.6053 238.244 27.0668C240.295 29.5283 241.526 32.383 241.936 35.6309L230.962 37.6309C230.552 34.8958 229.201 32.742 226.911 31.1693C224.654 29.5967 221.714 28.8104 218.09 28.8104C215.082 28.8104 212.655 29.4258 210.808 30.6565C208.962 31.8531 208.039 33.4428 208.039 35.4257C208.039 36.6907 208.432 37.7334 209.219 38.5539C210.005 39.3744 211.475 40.1779 213.629 40.9642C215.783 41.7505 219.082 42.7078 223.526 43.836C228.244 45.0325 231.937 46.3659 234.603 47.836C237.304 49.2718 239.253 50.9812 240.449 52.9641C241.646 54.9129 242.244 57.3402 242.244 60.2462C242.244 63.8701 241.338 66.9983 239.526 69.6308C237.748 72.2632 235.167 74.2803 231.783 75.682C228.432 77.0837 224.432 77.7846 219.783 77.7846Z" fill="#32636A"/>
<path d="M146.585 51.6308C147.029 56.7932 148.585 60.7761 151.251 63.5795C153.918 66.3487 157.576 67.7333 162.226 67.7333C165.542 67.7333 168.431 66.9812 170.892 65.4769C173.354 63.9727 175.268 61.7846 176.636 58.9128L187.149 62.2462C185.029 67.135 181.781 70.9641 177.405 73.7333C173.029 76.4683 168.14 77.8359 162.739 77.8359C157.269 77.8359 152.448 76.6393 148.277 74.2461C144.106 71.8188 140.858 68.4342 138.534 64.0923C136.243 59.7163 135.098 54.7077 135.098 49.0667C135.098 43.0838 136.226 37.8531 138.482 33.3745C140.739 28.8958 143.918 25.4429 148.021 23.0155C152.123 20.5882 156.858 19.3745 162.226 19.3745C167.525 19.3745 172.106 20.554 175.969 22.913C179.833 25.2719 182.79 28.6565 184.841 33.0668C186.927 37.4428 187.969 42.6223 187.969 48.6052C187.969 49.2548 187.935 50.2633 187.867 51.6308H146.585ZM162.636 28.8617C158.089 28.8617 154.482 30.0924 151.816 32.554C149.183 34.9813 147.525 38.5539 146.841 43.2719H176.892C176.311 38.383 174.841 34.7591 172.482 32.4001C170.157 30.0411 166.875 28.8617 162.636 28.8617Z" fill="#32636A"/>
<path d="M113.74 20.9136H124.561V76.298H115.022V69.6827C112.937 72.2809 110.356 74.2809 107.279 75.6826C104.202 77.0843 100.681 77.7852 96.7148 77.7852C90.9028 77.7852 86.3558 76.3322 83.0738 73.4262C79.8259 70.4861 77.6379 67.0673 76.5097 63.1698C75.3815 59.2724 74.8174 55.4434 74.8174 51.6827V20.9136H85.6891V48.1443C85.6891 53.5801 86.6977 58.1955 88.7148 61.9904C90.7319 65.751 94.39 67.6314 99.6891 67.6314C103.894 67.6314 107.279 66.1955 109.843 63.3237C112.441 60.4519 113.74 55.922 113.74 49.734V20.9136Z" fill="#32636A"/>
<path d="M34.923 77.8359C27.6751 77.8359 21.4187 76.2291 16.1538 73.0154C10.8889 69.8018 6.87177 65.306 4.10255 59.5283C1.36752 53.7163 0 46.9984 0 39.3745C0 31.7506 1.36752 25.0498 4.10255 19.272C6.87177 13.4601 10.8889 8.94725 16.1538 5.73358C21.4187 2.51992 27.6751 0.913086 34.923 0.913086C42.1708 0.913086 48.4101 2.51992 53.6409 5.73358C58.9058 8.94725 62.9058 13.4601 65.6408 19.272C68.41 25.0498 69.7947 31.7506 69.7947 39.3745C69.7947 46.9984 68.41 53.7163 65.6408 59.5283C62.9058 65.306 58.9058 69.8018 53.6409 73.0154C48.4101 76.2291 42.1708 77.8359 34.923 77.8359ZM35.2307 67.6308C40.2905 67.6308 44.5469 66.4684 47.9999 64.1437C51.487 61.7847 54.0853 58.4855 55.7947 54.2463C57.5383 50.0069 58.4101 45.0497 58.4101 39.3745C58.4101 33.6309 57.5212 28.6395 55.7434 24.4002C53.9656 20.1609 51.299 16.8959 47.7434 14.6053C44.1879 12.2806 39.8118 11.1182 34.6153 11.1182C29.5213 11.1182 25.2307 12.2977 21.7435 14.6566C18.2905 17.0156 15.6923 20.3318 13.9487 24.6053C12.2393 28.8446 11.3846 33.819 11.3846 39.5284C11.3846 45.2377 12.2735 50.195 14.0512 54.4001C15.8632 58.6052 18.5469 61.8702 22.1025 64.1949C25.658 66.4855 30.0341 67.6308 35.2307 67.6308Z" fill="#32636A"/>
<path fill-rule="evenodd" clip-rule="evenodd" d="M62.147 94.9287H29.5352V82.6992H62.147V94.9287Z" fill="#32636A"/>
<path fill-rule="evenodd" clip-rule="evenodd" d="M308.027 16.2397H295.797V4.01025H308.027V16.2397Z" fill="#32636A"/>
<path fill-rule="evenodd" clip-rule="evenodd" d="M41.7646 47.4892H29.5352V35.2598H41.7646V47.4892Z" fill="#32636A"/>
</svg>
